<svg width="496" height="315" viewBox="0 0 496 315" fill="none" xmlns="http://www.w3.org/2000/svg">
<path d="M58.218 83.1892C58.4765 83.1892 58.7395 83.1758 59.0036 83.1482L150.303 73.6993C157.396 72.9609 164.657 72.5873 171.886 72.5873C185.537 72.5873 199.124 73.9156 212.272 76.5359C215.185 77.1163 218.206 75.8844 219.013 73.7822C219.819 71.6799 218.109 69.5051 215.192 68.9238C201.093 66.114 186.523 64.6902 171.886 64.6902C164.135 64.6902 156.347 65.0914 148.742 65.8827L57.4465 75.3308C54.4519 75.6412 52.3722 77.6423 52.8028 79.8006C53.194 81.7693 55.5367 83.1892 58.218 83.1892Z" fill="#14161F"/>
<path d="M283.727 76.5365C304.015 72.494 324.864 71.54 345.7 73.7006L436.995 83.1488C437.259 83.1764 437.521 83.1898 437.781 83.1898C440.462 83.1898 442.806 81.7699 443.197 79.802C443.628 77.6437 441.548 75.6425 438.554 75.3322L347.26 65.8841C324.921 63.567 302.56 64.5905 280.808 68.9252C277.891 69.5065 276.181 71.6813 276.987 73.7836C277.794 75.8858 280.814 77.1177 283.727 76.5365Z" fill="#14161F"/>
<path d="M58.218 110.326C58.4765 110.326 58.7395 110.313 59.0036 110.285L150.303 100.836C157.396 100.098 164.657 99.7245 171.886 99.7245C185.537 99.7245 199.124 101.053 212.272 103.673C215.185 104.254 218.206 103.022 219.013 100.919C219.819 98.8172 218.109 96.6423 215.192 96.0611C201.093 93.2513 186.523 91.8274 171.886 91.8274C164.135 91.8274 156.347 92.2286 148.742 93.0199L57.4465 102.468C54.4519 102.778 52.3722 104.779 52.8028 106.938C53.194 108.907 55.5367 110.326 58.218 110.326Z" fill="#14161F"/>
<path d="M283.727 103.674C304.015 99.6311 324.866 98.6779 345.7 100.838L436.995 110.286C437.259 110.314 437.521 110.327 437.781 110.327C440.462 110.327 442.806 108.907 443.197 106.939C443.628 104.781 441.548 102.78 438.554 102.469L347.26 93.0212C324.921 90.7042 302.562 91.7269 280.808 96.0624C277.891 96.6436 276.181 98.8185 276.987 100.921C277.794 103.023 280.814 104.255 283.727 103.674Z" fill="#14161F"/>
<path d="M58.218 137.463C58.4765 137.463 58.7395 137.45 59.0036 137.422L150.303 127.973C157.396 127.236 164.657 126.861 171.886 126.861C185.537 126.861 199.125 128.19 212.272 130.81C215.185 131.391 218.206 130.159 219.013 128.056C219.819 125.954 218.109 123.779 215.192 123.198C201.094 120.388 186.524 118.964 171.886 118.964C164.136 118.964 156.347 119.366 148.742 120.157L57.4465 129.605C54.4519 129.915 52.3722 131.916 52.8028 134.075C53.194 136.043 55.5367 137.463 58.218 137.463Z" fill="#14161F"/>
<path d="M283.727 130.81C304.016 126.768 324.869 125.815 345.7 127.975L436.995 137.423C437.259 137.45 437.521 137.464 437.781 137.464C440.462 137.464 442.806 136.044 443.197 134.076C443.628 131.918 441.548 129.916 438.554 129.606L347.26 120.158C324.917 117.841 302.56 118.864 280.808 123.199C277.891 123.78 276.181 125.955 276.987 128.057C277.794 130.16 280.814 131.392 283.727 130.81Z" fill="#14161F"/>
<path d="M58.218 164.601C58.4765 164.601 58.7395 164.588 59.0036 164.56L150.303 155.111C157.396 154.373 164.657 153.999 171.886 153.999C185.537 153.999 199.124 155.328 212.272 157.948C215.185 158.528 218.206 157.297 219.013 155.194C219.819 153.092 218.109 150.917 215.192 150.336C201.093 147.526 186.523 146.102 171.886 146.102C164.135 146.102 156.347 146.503 148.742 147.295L57.4465 156.743C54.4519 157.053 52.3722 159.054 52.8028 161.213C53.194 163.181 55.5367 164.601 58.218 164.601Z" fill="#14161F"/>
<path d="M283.727 157.947C304.015 153.905 324.864 152.951 345.7 155.111L436.995 164.559C437.259 164.587 437.521 164.601 437.781 164.601C440.462 164.601 442.806 163.181 443.197 161.213C443.628 159.054 441.548 157.053 438.554 156.743L347.26 147.295C324.921 144.978 302.56 146.001 280.808 150.336C277.891 150.917 276.181 153.092 276.987 155.194C277.794 157.296 280.814 158.528 283.727 157.947Z" fill="#14161F"/>
<path d="M58.2178 191.737C58.4775 191.737 58.7394 191.724 59.0035 191.696L150.302 182.247C157.395 181.51 164.656 181.135 171.885 181.135C185.535 181.135 199.123 182.463 212.271 185.084C215.184 185.664 218.205 184.432 219.012 182.33C219.818 180.228 218.108 178.053 215.191 177.472C201.092 174.662 186.522 173.238 171.885 173.238C164.135 173.238 156.346 173.639 148.74 174.431L57.4453 183.879C54.4507 184.19 52.3709 186.191 52.8016 188.349C53.1938 190.317 55.5365 191.737 58.2178 191.737Z" fill="#14161F"/>
<path d="M283.727 185.084C304.016 181.042 324.869 180.089 345.7 182.249L436.995 191.697C437.259 191.724 437.521 191.738 437.781 191.738C440.462 191.738 442.806 190.318 443.197 188.35C443.628 186.192 441.548 184.19 438.554 183.88L347.26 174.432C324.917 172.115 302.56 173.138 280.808 177.473C277.891 178.054 276.181 180.229 276.987 182.331C277.794 184.433 280.814 185.665 283.727 185.084Z" fill="#14161F"/>
<path d="M58.218 218.875C58.4765 218.875 58.7395 218.861 59.0036 218.834L150.303 209.385C157.398 208.646 164.66 208.273 171.886 208.273C185.537 208.273 199.124 209.601 212.272 212.222C215.185 212.803 218.206 211.57 219.013 209.468C219.819 207.366 218.109 205.191 215.192 204.609C201.093 201.8 186.523 200.375 171.886 200.375C164.137 200.375 156.349 200.776 148.742 201.567L57.4465 211.016C54.4519 211.326 52.3722 213.327 52.8028 215.485C53.194 217.455 55.5367 218.875 58.218 218.875Z" fill="#14161F"/>
<path d="M283.728 212.221C304.014 208.179 324.864 207.225 345.7 209.386L436.995 218.834C437.259 218.861 437.521 218.875 437.781 218.875C440.462 218.875 442.806 217.455 443.197 215.487C443.628 213.329 441.548 211.328 438.554 211.017L347.26 201.569C324.921 199.252 302.561 200.275 280.807 204.61C277.891 205.191 276.181 207.366 276.987 209.469C277.794 211.57 280.81 212.802 283.728 212.221Z" fill="#14161F"/>
<path d="M171.885 235.409C185.535 235.409 199.123 236.738 212.271 239.358C215.184 239.939 218.205 238.706 219.012 236.604C219.818 234.502 218.108 232.327 215.191 231.746C201.092 228.936 186.522 227.512 171.885 227.512C164.133 227.512 156.346 227.913 148.74 228.705L57.4453 238.153C54.4507 238.463 52.3709 240.464 52.8016 242.623C53.1938 244.591 55.5365 246.01 58.2178 246.01C58.4764 246.01 58.7394 245.997 59.0035 245.969L150.303 236.52C157.396 235.784 164.656 235.409 171.885 235.409Z" fill="#14161F"/>
<path d="M438.552 238.154L347.258 228.706C324.919 226.389 302.559 227.412 280.807 231.747C277.89 232.328 276.18 234.503 276.986 236.606C277.793 238.708 280.814 239.94 283.726 239.359C304.014 235.317 324.862 234.364 345.699 236.523L436.994 245.972C437.258 245.999 437.52 246.013 437.78 246.013C440.461 246.013 442.805 244.593 443.196 242.625C443.627 240.465 441.548 238.464 438.552 238.154Z" fill="#14161F"/>
<path d="M490.52 71.4562H477.641V52.5173C477.641 50.5532 475.639 48.8877 472.941 48.609L347.258 35.5968C339.596 34.8032 331.871 34.4194 324.154 34.4265V3.94906C324.154 2.46361 322.996 1.10451 321.161 0.430097C319.325 -0.244319 317.119 -0.117965 315.453 0.755458L300.595 8.54283L285.737 0.755458C284.072 -0.117965 281.866 -0.243529 280.029 0.430097C278.193 1.10372 277.037 2.46361 277.037 3.94906V39.4546C267.017 41.6287 257.278 44.4914 247.999 48.0277C217.75 36.5011 182.627 32.0889 148.741 35.5968L23.0577 48.609C20.3611 48.8885 18.3581 50.5532 18.3581 52.5173V71.4562H5.47871C2.45337 71.4562 0 73.2243 0 75.4047V310.742C0 311.839 0.633339 312.887 1.74881 313.634C2.76565 314.315 4.10027 314.69 5.47871 314.69C5.61239 314.69 5.74498 314.687 5.87866 314.68L225.552 303.109H270.448L490.122 314.68C490.256 314.687 490.389 314.69 490.521 314.69C491.901 314.69 493.235 314.315 494.251 313.634C495.367 312.887 496 311.839 496 310.742V75.4047C495.999 73.2236 493.547 71.4562 490.52 71.4562ZM345.7 43.4134L466.683 55.9383V273.29L347.258 260.926C315.399 257.627 282.445 261.332 253.478 271.368V54.8745C281.609 44.2245 314.225 40.1551 345.7 43.4134ZM44.772 279.668L150.299 268.743C181.773 265.486 214.389 269.554 242.521 280.204V284.621C225.398 279.004 206.053 276.253 183.668 276.253C172.81 276.253 161.388 276.888 148.64 278.208L44.772 290.471V279.668ZM230.829 289.686C235.876 291.031 240.713 292.619 245.347 294.467C246.998 295.125 249 295.125 250.652 294.467C255.294 292.616 260.124 291.018 265.17 289.668V295.211H230.829V289.686ZM253.478 284.613V280.204C281.611 269.554 314.229 265.485 345.7 268.743L451.227 279.668V290.471L347.263 278.196C308.936 274.234 278.844 276.27 253.478 284.613ZM287.994 11.7033L297.374 16.6192C299.293 17.6261 301.898 17.6261 303.818 16.6192L313.197 11.7033V34.7029C304.715 35.1222 296.283 36.0162 287.995 37.3737V11.7033H287.994ZM29.3155 55.9391L150.299 43.4142C181.773 40.1559 214.389 44.2245 242.521 54.8753V271.377C220.454 263.732 196.081 259.752 171.631 259.752C163.986 259.752 156.331 260.141 148.741 260.927L29.3155 273.29V55.9391V55.9391ZM10.9574 306.494V79.3533H18.3581V277.846C18.3581 278.991 19.0473 280.08 20.2493 280.831C21.4492 281.58 23.0446 281.917 24.6159 281.755L33.8146 280.803V295.12C33.8146 296.278 34.5214 297.379 35.7464 298.129C36.9715 298.88 38.591 299.204 40.1787 299.017L150.303 286.014C162.422 284.76 173.336 284.151 183.667 284.151C196.848 284.151 208.847 285.169 219.871 287.22V295.491L10.9574 306.494ZM485.041 306.494L276.127 295.489V287.201C295.691 283.55 318.387 283.189 345.598 286.001L455.819 299.015C456.115 299.05 456.411 299.068 456.706 299.068C457.995 299.068 459.255 298.739 460.252 298.129C461.478 297.378 462.184 296.278 462.184 295.119V280.802L471.384 281.755C471.644 281.781 471.905 281.795 472.163 281.795C473.473 281.795 474.748 281.456 475.751 280.831C476.952 280.08 477.642 278.992 477.642 277.846V79.3533H485.043V306.494H485.041Z" fill="#14161F"/>
</svg>
